<mxfile host="app.diagrams.net" modified="2022-04-15T02:31:43.114Z" agent="5.0 (Macintosh; Intel Mac OS X 10_15_7) AppleWebKit/537.36 (KHTML, like Gecko) Chrome/100.0.4896.60 Safari/537.36" etag="ToAwhpXLkDAALUr0bOxS" version="17.4.3" type="github">
  <diagram id="1dOQAi_4oyU1C2fP7cNQ" name="Page-1">
    <mxGraphModel dx="2852" dy="-786" grid="1" gridSize="10" guides="1" tooltips="1" connect="1" arrows="1" fold="1" page="1" pageScale="1" pageWidth="827" pageHeight="1169" math="0" shadow="0">
      <root>
        <mxCell id="0" />
        <mxCell id="1" parent="0" />
        <mxCell id="jQ7kkfIX27O_XA6jf1Ui-1" value="" style="edgeStyle=orthogonalEdgeStyle;rounded=0;orthogonalLoop=1;jettySize=auto;html=1;fontSize=14;fontColor=#000000;" edge="1" parent="1" source="jQ7kkfIX27O_XA6jf1Ui-3" target="jQ7kkfIX27O_XA6jf1Ui-10">
          <mxGeometry relative="1" as="geometry" />
        </mxCell>
        <mxCell id="jQ7kkfIX27O_XA6jf1Ui-2" style="edgeStyle=orthogonalEdgeStyle;rounded=0;orthogonalLoop=1;jettySize=auto;html=1;entryX=0;entryY=0.5;entryDx=0;entryDy=0;fontSize=14;fontColor=#000000;" edge="1" parent="1" source="jQ7kkfIX27O_XA6jf1Ui-3" target="jQ7kkfIX27O_XA6jf1Ui-13">
          <mxGeometry relative="1" as="geometry" />
        </mxCell>
        <mxCell id="jQ7kkfIX27O_XA6jf1Ui-3" value="&lt;h1&gt;结构化&lt;/h1&gt;&lt;p&gt;MYSQL&lt;/p&gt;&lt;p&gt;ORACLE&lt;/p&gt;&lt;p&gt;Kafka 结构化&lt;/p&gt;" style="text;html=1;strokeColor=none;fillColor=none;spacing=5;spacingTop=-20;whiteSpace=wrap;overflow=hidden;rounded=0;dashed=1;fontSize=14;fontColor=#000000;" vertex="1" parent="1">
          <mxGeometry x="590" y="3280" width="190" height="150" as="geometry" />
        </mxCell>
        <mxCell id="jQ7kkfIX27O_XA6jf1Ui-4" style="edgeStyle=orthogonalEdgeStyle;rounded=0;orthogonalLoop=1;jettySize=auto;html=1;exitX=1;exitY=0.5;exitDx=0;exitDy=0;entryX=0;entryY=0.75;entryDx=0;entryDy=0;fontSize=14;fontColor=#000000;" edge="1" parent="1" source="jQ7kkfIX27O_XA6jf1Ui-6" target="jQ7kkfIX27O_XA6jf1Ui-10">
          <mxGeometry relative="1" as="geometry" />
        </mxCell>
        <mxCell id="jQ7kkfIX27O_XA6jf1Ui-5" style="edgeStyle=orthogonalEdgeStyle;rounded=0;orthogonalLoop=1;jettySize=auto;html=1;entryX=0;entryY=1;entryDx=0;entryDy=0;fontSize=14;fontColor=#000000;" edge="1" parent="1" source="jQ7kkfIX27O_XA6jf1Ui-6" target="jQ7kkfIX27O_XA6jf1Ui-13">
          <mxGeometry relative="1" as="geometry" />
        </mxCell>
        <mxCell id="jQ7kkfIX27O_XA6jf1Ui-6" value="&lt;h1&gt;半结构化&lt;/h1&gt;&lt;p&gt;日志文件&lt;/p&gt;&lt;p&gt;doc文档&lt;/p&gt;&lt;p&gt;Kafka JSON/复杂类型&lt;/p&gt;" style="text;html=1;strokeColor=none;fillColor=none;spacing=5;spacingTop=-20;whiteSpace=wrap;overflow=hidden;rounded=0;dashed=1;fontSize=14;fontColor=#000000;" vertex="1" parent="1">
          <mxGeometry x="590" y="3470" width="190" height="150" as="geometry" />
        </mxCell>
        <mxCell id="jQ7kkfIX27O_XA6jf1Ui-7" style="edgeStyle=orthogonalEdgeStyle;rounded=0;orthogonalLoop=1;jettySize=auto;html=1;exitX=1;exitY=0.5;exitDx=0;exitDy=0;entryX=0;entryY=0;entryDx=0;entryDy=0;fontSize=14;fontColor=#000000;" edge="1" parent="1" source="jQ7kkfIX27O_XA6jf1Ui-8" target="jQ7kkfIX27O_XA6jf1Ui-13">
          <mxGeometry relative="1" as="geometry" />
        </mxCell>
        <mxCell id="jQ7kkfIX27O_XA6jf1Ui-8" value="&lt;h1&gt;非结构化&lt;/h1&gt;&lt;p&gt;视频&lt;/p&gt;&lt;p&gt;图片&lt;/p&gt;&lt;p&gt;空间数据TIF/三维&lt;/p&gt;" style="text;html=1;strokeColor=none;fillColor=none;spacing=5;spacingTop=-20;whiteSpace=wrap;overflow=hidden;rounded=0;dashed=1;fontSize=14;fontColor=#000000;" vertex="1" parent="1">
          <mxGeometry x="590" y="3660" width="190" height="150" as="geometry" />
        </mxCell>
        <mxCell id="jQ7kkfIX27O_XA6jf1Ui-9" style="edgeStyle=orthogonalEdgeStyle;rounded=0;orthogonalLoop=1;jettySize=auto;html=1;exitX=1;exitY=0.5;exitDx=0;exitDy=0;entryX=0;entryY=0.75;entryDx=0;entryDy=0;fontSize=14;fontColor=#000000;" edge="1" parent="1" source="jQ7kkfIX27O_XA6jf1Ui-10" target="jQ7kkfIX27O_XA6jf1Ui-23">
          <mxGeometry relative="1" as="geometry" />
        </mxCell>
        <mxCell id="jQ7kkfIX27O_XA6jf1Ui-10" value="" style="rounded=1;whiteSpace=wrap;html=1;strokeWidth=2;fillWeight=4;hachureGap=8;hachureAngle=45;fillColor=#1ba1e2;sketch=1;dashed=1;fontSize=14;fontColor=#000000;" vertex="1" parent="1">
          <mxGeometry x="960" y="3340" width="230" height="60" as="geometry" />
        </mxCell>
        <mxCell id="jQ7kkfIX27O_XA6jf1Ui-11" value="DSC实时接入" style="text;strokeColor=none;fillColor=none;html=1;fontSize=24;fontStyle=1;verticalAlign=middle;align=center;dashed=1;fontColor=#000000;" vertex="1" parent="1">
          <mxGeometry x="1027.5" y="3290" width="100" height="40" as="geometry" />
        </mxCell>
        <mxCell id="jQ7kkfIX27O_XA6jf1Ui-12" style="edgeStyle=orthogonalEdgeStyle;rounded=0;orthogonalLoop=1;jettySize=auto;html=1;exitX=1;exitY=0.5;exitDx=0;exitDy=0;entryX=0;entryY=0.5;entryDx=0;entryDy=0;fontSize=14;fontColor=#000000;" edge="1" parent="1" source="jQ7kkfIX27O_XA6jf1Ui-13" target="jQ7kkfIX27O_XA6jf1Ui-23">
          <mxGeometry relative="1" as="geometry" />
        </mxCell>
        <mxCell id="jQ7kkfIX27O_XA6jf1Ui-13" value="" style="rounded=1;whiteSpace=wrap;html=1;strokeWidth=2;fillWeight=4;hachureGap=8;hachureAngle=45;fillColor=#1ba1e2;sketch=1;dashed=1;fontSize=14;fontColor=#000000;" vertex="1" parent="1">
          <mxGeometry x="962.5" y="3600" width="230" height="60" as="geometry" />
        </mxCell>
        <mxCell id="jQ7kkfIX27O_XA6jf1Ui-14" value="DSC 批次汇聚" style="text;strokeColor=none;fillColor=none;html=1;fontSize=24;fontStyle=1;verticalAlign=middle;align=center;dashed=1;fontColor=#000000;" vertex="1" parent="1">
          <mxGeometry x="1030" y="3550" width="100" height="40" as="geometry" />
        </mxCell>
        <mxCell id="jQ7kkfIX27O_XA6jf1Ui-15" value="CDC Reader" style="text;strokeColor=none;fillColor=none;html=1;fontSize=24;fontStyle=1;verticalAlign=middle;align=center;dashed=1;fontColor=#000000;" vertex="1" parent="1">
          <mxGeometry x="800" y="3430" width="100" height="40" as="geometry" />
        </mxCell>
        <mxCell id="jQ7kkfIX27O_XA6jf1Ui-16" value="Batch Reader" style="text;strokeColor=none;fillColor=none;html=1;fontSize=24;fontStyle=1;verticalAlign=middle;align=center;dashed=1;fontColor=#000000;" vertex="1" parent="1">
          <mxGeometry x="810" y="3630" width="100" height="40" as="geometry" />
        </mxCell>
        <mxCell id="jQ7kkfIX27O_XA6jf1Ui-17" value="" style="rounded=1;whiteSpace=wrap;html=1;strokeWidth=2;fillWeight=4;hachureGap=8;hachureAngle=45;fillColor=#1ba1e2;sketch=1;dashed=1;fontSize=14;fontColor=#000000;" vertex="1" parent="1">
          <mxGeometry x="1380" y="3270" width="960" height="60" as="geometry" />
        </mxCell>
        <mxCell id="jQ7kkfIX27O_XA6jf1Ui-18" value="统一元数据" style="text;strokeColor=none;fillColor=none;html=1;fontSize=24;fontStyle=1;verticalAlign=middle;align=center;dashed=1;fontColor=#000000;" vertex="1" parent="1">
          <mxGeometry x="1810" y="3200" width="100" height="40" as="geometry" />
        </mxCell>
        <mxCell id="jQ7kkfIX27O_XA6jf1Ui-19" value="" style="edgeStyle=orthogonalEdgeStyle;rounded=0;orthogonalLoop=1;jettySize=auto;html=1;fontSize=14;fontColor=#000000;" edge="1" parent="1" source="jQ7kkfIX27O_XA6jf1Ui-23" target="jQ7kkfIX27O_XA6jf1Ui-38">
          <mxGeometry relative="1" as="geometry" />
        </mxCell>
        <mxCell id="jQ7kkfIX27O_XA6jf1Ui-20" style="edgeStyle=orthogonalEdgeStyle;rounded=0;orthogonalLoop=1;jettySize=auto;html=1;entryX=0;entryY=0.5;entryDx=0;entryDy=0;fontSize=14;fontColor=#000000;" edge="1" parent="1" source="jQ7kkfIX27O_XA6jf1Ui-23" target="jQ7kkfIX27O_XA6jf1Ui-41">
          <mxGeometry relative="1" as="geometry" />
        </mxCell>
        <mxCell id="jQ7kkfIX27O_XA6jf1Ui-21" style="edgeStyle=orthogonalEdgeStyle;rounded=0;orthogonalLoop=1;jettySize=auto;html=1;exitX=0.5;exitY=1;exitDx=0;exitDy=0;entryX=0;entryY=0.5;entryDx=0;entryDy=0;fontSize=16;fontColor=#000000;" edge="1" parent="1" source="jQ7kkfIX27O_XA6jf1Ui-23" target="jQ7kkfIX27O_XA6jf1Ui-48">
          <mxGeometry relative="1" as="geometry" />
        </mxCell>
        <mxCell id="jQ7kkfIX27O_XA6jf1Ui-22" style="edgeStyle=orthogonalEdgeStyle;rounded=0;orthogonalLoop=1;jettySize=auto;html=1;entryX=0;entryY=0.5;entryDx=0;entryDy=0;fontSize=20;fontColor=#000000;" edge="1" parent="1" source="jQ7kkfIX27O_XA6jf1Ui-23" target="jQ7kkfIX27O_XA6jf1Ui-65">
          <mxGeometry relative="1" as="geometry" />
        </mxCell>
        <mxCell id="jQ7kkfIX27O_XA6jf1Ui-23" value="" style="rounded=1;whiteSpace=wrap;html=1;strokeWidth=2;fillWeight=4;hachureGap=8;hachureAngle=45;fillColor=#1ba1e2;sketch=1;dashed=1;fontSize=14;fontColor=#000000;" vertex="1" parent="1">
          <mxGeometry x="1390" y="3460" width="250" height="80" as="geometry" />
        </mxCell>
        <mxCell id="jQ7kkfIX27O_XA6jf1Ui-24" value="EMR 湖仓ODS" style="text;strokeColor=none;fillColor=none;html=1;fontSize=24;fontStyle=1;verticalAlign=middle;align=center;dashed=1;fontColor=#000000;" vertex="1" parent="1">
          <mxGeometry x="1465" y="3410" width="100" height="40" as="geometry" />
        </mxCell>
        <mxCell id="jQ7kkfIX27O_XA6jf1Ui-25" value="CDC Writer" style="text;strokeColor=none;fillColor=none;html=1;fontSize=24;fontStyle=1;verticalAlign=middle;align=center;dashed=1;fontColor=#000000;" vertex="1" parent="1">
          <mxGeometry x="1255" y="3400" width="100" height="40" as="geometry" />
        </mxCell>
        <mxCell id="jQ7kkfIX27O_XA6jf1Ui-26" value="Batch Writer" style="text;strokeColor=none;fillColor=none;html=1;fontSize=24;fontStyle=1;verticalAlign=middle;align=center;dashed=1;fontColor=#000000;" vertex="1" parent="1">
          <mxGeometry x="1250" y="3570" width="100" height="40" as="geometry" />
        </mxCell>
        <mxCell id="jQ7kkfIX27O_XA6jf1Ui-27" style="edgeStyle=orthogonalEdgeStyle;rounded=0;orthogonalLoop=1;jettySize=auto;html=1;exitX=0.5;exitY=1;exitDx=0;exitDy=0;fontSize=14;fontColor=#000000;" edge="1" parent="1" source="jQ7kkfIX27O_XA6jf1Ui-28">
          <mxGeometry relative="1" as="geometry">
            <mxPoint x="2144.5" y="3690" as="targetPoint" />
          </mxGeometry>
        </mxCell>
        <mxCell id="jQ7kkfIX27O_XA6jf1Ui-28" value="Flink批流一体化" style="swimlane;startSize=20;horizontal=1;childLayout=flowLayout;flowOrientation=north;resizable=0;interRankCellSpacing=50;containerType=tree;dashed=1;fontSize=16;fontColor=#000000;strokeColor=#FFFF99;fillColor=#FFFFFF;" vertex="1" parent="1">
          <mxGeometry x="2010" y="3380" width="270" height="280" as="geometry" />
        </mxCell>
        <mxCell id="jQ7kkfIX27O_XA6jf1Ui-29" value="CDC 结构化" style="whiteSpace=wrap;html=1;dashed=1;fontSize=14;fontColor=#000000;strokeColor=#FFFF99;fillColor=#FFFFFF;" vertex="1" parent="jQ7kkfIX27O_XA6jf1Ui-28">
          <mxGeometry x="85" y="40" width="100" height="40" as="geometry" />
        </mxCell>
        <mxCell id="jQ7kkfIX27O_XA6jf1Ui-30" value="成果数据" style="whiteSpace=wrap;html=1;dashed=1;fontSize=14;fontColor=#000000;strokeColor=#FFFF99;fillColor=#FFFFFF;" vertex="1" parent="jQ7kkfIX27O_XA6jf1Ui-28">
          <mxGeometry x="20" y="130" width="100" height="40" as="geometry" />
        </mxCell>
        <mxCell id="jQ7kkfIX27O_XA6jf1Ui-31" value="" style="html=1;curved=1;rounded=0;fontSize=14;fontColor=#000000;noEdgeStyle=1;orthogonal=1;" edge="1" parent="jQ7kkfIX27O_XA6jf1Ui-28" source="jQ7kkfIX27O_XA6jf1Ui-29" target="jQ7kkfIX27O_XA6jf1Ui-30">
          <mxGeometry relative="1" as="geometry">
            <Array as="points">
              <mxPoint x="112.5" y="92" />
              <mxPoint x="70" y="118" />
            </Array>
          </mxGeometry>
        </mxCell>
        <mxCell id="jQ7kkfIX27O_XA6jf1Ui-32" value="问题数据" style="whiteSpace=wrap;html=1;dashed=1;fontSize=14;fontColor=#000000;strokeColor=#FFFF99;fillColor=#FFFFFF;" vertex="1" parent="jQ7kkfIX27O_XA6jf1Ui-28">
          <mxGeometry x="150" y="130" width="100" height="40" as="geometry" />
        </mxCell>
        <mxCell id="jQ7kkfIX27O_XA6jf1Ui-33" value="" style="html=1;curved=1;rounded=0;fontSize=14;fontColor=#000000;noEdgeStyle=1;orthogonal=1;" edge="1" parent="jQ7kkfIX27O_XA6jf1Ui-28" source="jQ7kkfIX27O_XA6jf1Ui-29" target="jQ7kkfIX27O_XA6jf1Ui-32">
          <mxGeometry relative="1" as="geometry">
            <Array as="points">
              <mxPoint x="157.5" y="92" />
              <mxPoint x="200" y="118" />
            </Array>
          </mxGeometry>
        </mxCell>
        <mxCell id="jQ7kkfIX27O_XA6jf1Ui-34" value="End" style="whiteSpace=wrap;html=1;dashed=1;fontSize=14;fontColor=#000000;strokeColor=#FFFF99;fillColor=#FFFFFF;" vertex="1" parent="jQ7kkfIX27O_XA6jf1Ui-28">
          <mxGeometry x="85" y="220" width="100" height="40" as="geometry" />
        </mxCell>
        <mxCell id="jQ7kkfIX27O_XA6jf1Ui-35" value="" style="html=1;curved=1;rounded=0;fontSize=14;fontColor=#000000;noEdgeStyle=1;orthogonal=1;" edge="1" parent="jQ7kkfIX27O_XA6jf1Ui-28" source="jQ7kkfIX27O_XA6jf1Ui-30" target="jQ7kkfIX27O_XA6jf1Ui-34">
          <mxGeometry relative="1" as="geometry">
            <Array as="points">
              <mxPoint x="70" y="182" />
              <mxPoint x="112.5" y="208" />
            </Array>
          </mxGeometry>
        </mxCell>
        <mxCell id="jQ7kkfIX27O_XA6jf1Ui-36" value="" style="html=1;curved=1;rounded=0;fontSize=14;fontColor=#000000;noEdgeStyle=1;orthogonal=1;" edge="1" parent="jQ7kkfIX27O_XA6jf1Ui-28" source="jQ7kkfIX27O_XA6jf1Ui-32" target="jQ7kkfIX27O_XA6jf1Ui-34">
          <mxGeometry relative="1" as="geometry">
            <Array as="points">
              <mxPoint x="200" y="182" />
              <mxPoint x="157.5" y="208" />
            </Array>
          </mxGeometry>
        </mxCell>
        <mxCell id="jQ7kkfIX27O_XA6jf1Ui-37" style="edgeStyle=orthogonalEdgeStyle;rounded=0;orthogonalLoop=1;jettySize=auto;html=1;exitX=1;exitY=0.5;exitDx=0;exitDy=0;exitPerimeter=0;fontSize=14;fontColor=#000000;" edge="1" parent="1" source="jQ7kkfIX27O_XA6jf1Ui-38">
          <mxGeometry relative="1" as="geometry">
            <mxPoint x="2010" y="3500" as="targetPoint" />
          </mxGeometry>
        </mxCell>
        <mxCell id="jQ7kkfIX27O_XA6jf1Ui-38" value="" style="shape=singleArrow;whiteSpace=wrap;html=1;arrowWidth=0.4;arrowSize=0.4;fontSize=14;fillColor=#1ba1e2;fontColor=#000000;rounded=1;strokeWidth=2;fillWeight=4;hachureGap=8;hachureAngle=45;sketch=1;dashed=1;" vertex="1" parent="1">
          <mxGeometry x="1805" y="3470" width="80" height="60" as="geometry" />
        </mxCell>
        <mxCell id="jQ7kkfIX27O_XA6jf1Ui-39" value="CDC Reader" style="text;strokeColor=none;fillColor=none;html=1;fontSize=24;fontStyle=1;verticalAlign=middle;align=center;dashed=1;fontColor=#000000;" vertex="1" parent="1">
          <mxGeometry x="1780" y="3420" width="100" height="40" as="geometry" />
        </mxCell>
        <mxCell id="jQ7kkfIX27O_XA6jf1Ui-40" style="edgeStyle=orthogonalEdgeStyle;rounded=0;orthogonalLoop=1;jettySize=auto;html=1;exitX=1;exitY=0.5;exitDx=0;exitDy=0;entryX=0;entryY=0.5;entryDx=0;entryDy=0;fontSize=14;fontColor=#000000;" edge="1" parent="1" source="jQ7kkfIX27O_XA6jf1Ui-41" target="jQ7kkfIX27O_XA6jf1Ui-28">
          <mxGeometry relative="1" as="geometry" />
        </mxCell>
        <mxCell id="jQ7kkfIX27O_XA6jf1Ui-41" value="" style="rounded=1;whiteSpace=wrap;html=1;strokeWidth=2;fillWeight=4;hachureGap=8;hachureAngle=45;fillColor=#1ba1e2;sketch=1;dashed=1;fontSize=14;fontColor=#000000;" vertex="1" parent="1">
          <mxGeometry x="1785" y="3600" width="120" height="60" as="geometry" />
        </mxCell>
        <mxCell id="jQ7kkfIX27O_XA6jf1Ui-42" value="日志解析AI引擎" style="text;strokeColor=none;fillColor=none;html=1;fontSize=24;fontStyle=1;verticalAlign=middle;align=center;dashed=1;fontColor=#000000;" vertex="1" parent="1">
          <mxGeometry x="1795" y="3540" width="100" height="40" as="geometry" />
        </mxCell>
        <mxCell id="jQ7kkfIX27O_XA6jf1Ui-43" value="" style="edgeStyle=orthogonalEdgeStyle;rounded=0;orthogonalLoop=1;jettySize=auto;html=1;fontSize=16;fontColor=#000000;" edge="1" parent="1" source="jQ7kkfIX27O_XA6jf1Ui-45" target="jQ7kkfIX27O_XA6jf1Ui-50">
          <mxGeometry relative="1" as="geometry" />
        </mxCell>
        <mxCell id="jQ7kkfIX27O_XA6jf1Ui-44" style="edgeStyle=orthogonalEdgeStyle;rounded=0;orthogonalLoop=1;jettySize=auto;html=1;exitX=0.5;exitY=1;exitDx=0;exitDy=0;entryX=0.5;entryY=0;entryDx=0;entryDy=0;fontSize=16;fontColor=#000000;" edge="1" parent="1" source="jQ7kkfIX27O_XA6jf1Ui-45" target="jQ7kkfIX27O_XA6jf1Ui-53">
          <mxGeometry relative="1" as="geometry" />
        </mxCell>
        <mxCell id="jQ7kkfIX27O_XA6jf1Ui-45" value="" style="rounded=1;whiteSpace=wrap;html=1;strokeWidth=2;fillWeight=4;hachureGap=8;hachureAngle=45;fillColor=#1ba1e2;sketch=1;dashed=1;fontSize=14;fontColor=#000000;" vertex="1" parent="1">
          <mxGeometry x="2090" y="3700" width="120" height="60" as="geometry" />
        </mxCell>
        <mxCell id="jQ7kkfIX27O_XA6jf1Ui-46" value="EMR 湖仓STD层增量建设" style="text;strokeColor=none;fillColor=none;html=1;fontSize=24;fontStyle=1;verticalAlign=middle;align=center;dashed=1;fontColor=#000000;" vertex="1" parent="1">
          <mxGeometry x="2260" y="3650" width="100" height="40" as="geometry" />
        </mxCell>
        <mxCell id="jQ7kkfIX27O_XA6jf1Ui-47" style="edgeStyle=orthogonalEdgeStyle;rounded=0;orthogonalLoop=1;jettySize=auto;html=1;exitX=1;exitY=0.5;exitDx=0;exitDy=0;entryX=0;entryY=0.5;entryDx=0;entryDy=0;fontSize=16;fontColor=#000000;" edge="1" parent="1" source="jQ7kkfIX27O_XA6jf1Ui-48" target="jQ7kkfIX27O_XA6jf1Ui-53">
          <mxGeometry relative="1" as="geometry" />
        </mxCell>
        <mxCell id="jQ7kkfIX27O_XA6jf1Ui-48" value="" style="rounded=1;whiteSpace=wrap;html=1;strokeWidth=2;fillWeight=4;hachureGap=8;hachureAngle=45;fillColor=#1ba1e2;sketch=1;dashed=1;fontSize=14;fontColor=#000000;" vertex="1" parent="1">
          <mxGeometry x="1742.5" y="3840" width="205" height="60" as="geometry" />
        </mxCell>
        <mxCell id="jQ7kkfIX27O_XA6jf1Ui-49" value="空间数据处理Spark" style="text;strokeColor=none;fillColor=none;html=1;fontSize=24;fontStyle=1;verticalAlign=middle;align=center;dashed=1;fontColor=#000000;" vertex="1" parent="1">
          <mxGeometry x="1795" y="3790" width="100" height="40" as="geometry" />
        </mxCell>
        <mxCell id="jQ7kkfIX27O_XA6jf1Ui-50" value="" style="shape=singleArrow;whiteSpace=wrap;html=1;arrowWidth=0.4;arrowSize=0.4;fontSize=14;fillColor=#1ba1e2;fontColor=#000000;rounded=1;strokeWidth=2;fillWeight=4;hachureGap=8;hachureAngle=45;sketch=1;dashed=1;" vertex="1" parent="1">
          <mxGeometry x="2490" y="3700" width="80" height="60" as="geometry" />
        </mxCell>
        <mxCell id="jQ7kkfIX27O_XA6jf1Ui-51" style="edgeStyle=orthogonalEdgeStyle;rounded=0;orthogonalLoop=1;jettySize=auto;html=1;exitX=1;exitY=0.5;exitDx=0;exitDy=0;entryX=0;entryY=0;entryDx=0;entryDy=33.75;entryPerimeter=0;fontSize=20;fontColor=#000000;" edge="1" parent="1" source="jQ7kkfIX27O_XA6jf1Ui-53" target="jQ7kkfIX27O_XA6jf1Ui-59">
          <mxGeometry relative="1" as="geometry" />
        </mxCell>
        <mxCell id="jQ7kkfIX27O_XA6jf1Ui-52" style="edgeStyle=orthogonalEdgeStyle;rounded=0;orthogonalLoop=1;jettySize=auto;html=1;exitX=1;exitY=0.5;exitDx=0;exitDy=0;entryX=0;entryY=0.5;entryDx=0;entryDy=0;entryPerimeter=0;fontSize=20;fontColor=#000000;" edge="1" parent="1" source="jQ7kkfIX27O_XA6jf1Ui-53" target="jQ7kkfIX27O_XA6jf1Ui-61">
          <mxGeometry relative="1" as="geometry" />
        </mxCell>
        <mxCell id="jQ7kkfIX27O_XA6jf1Ui-53" value="" style="rhombus;whiteSpace=wrap;html=1;strokeWidth=2;fillWeight=-1;hachureGap=8;fillStyle=cross-hatch;fillColor=#006600;sketch=1;dashed=1;fontSize=16;fontColor=#000000;" vertex="1" parent="1">
          <mxGeometry x="2195" y="3860" width="120" height="60" as="geometry" />
        </mxCell>
        <mxCell id="jQ7kkfIX27O_XA6jf1Ui-54" value="空间/非空间融合计算" style="text;strokeColor=none;fillColor=none;html=1;fontSize=24;fontStyle=1;verticalAlign=middle;align=center;dashed=1;fontColor=#000000;" vertex="1" parent="1">
          <mxGeometry x="2203" y="3940" width="100" height="40" as="geometry" />
        </mxCell>
        <mxCell id="jQ7kkfIX27O_XA6jf1Ui-55" style="edgeStyle=orthogonalEdgeStyle;rounded=0;orthogonalLoop=1;jettySize=auto;html=1;exitX=1;exitY=0.5;exitDx=0;exitDy=0;exitPerimeter=0;entryX=0;entryY=0.5;entryDx=0;entryDy=0;fontSize=20;fontColor=#000000;" edge="1" parent="1" source="jQ7kkfIX27O_XA6jf1Ui-56" target="jQ7kkfIX27O_XA6jf1Ui-62">
          <mxGeometry relative="1" as="geometry" />
        </mxCell>
        <mxCell id="jQ7kkfIX27O_XA6jf1Ui-56" value="&lt;font style=&quot;font-size: 20px&quot;&gt;OLAP实时分析数据库&lt;/font&gt;" style="shape=cylinder3;whiteSpace=wrap;html=1;boundedLbl=1;backgroundOutline=1;size=15;" vertex="1" parent="1">
          <mxGeometry x="2610" y="3677.5" width="240" height="105" as="geometry" />
        </mxCell>
        <mxCell id="jQ7kkfIX27O_XA6jf1Ui-57" style="edgeStyle=orthogonalEdgeStyle;rounded=0;orthogonalLoop=1;jettySize=auto;html=1;entryX=0;entryY=0.75;entryDx=0;entryDy=0;fontSize=20;fontColor=#000000;" edge="1" parent="1" source="jQ7kkfIX27O_XA6jf1Ui-59" target="jQ7kkfIX27O_XA6jf1Ui-62">
          <mxGeometry relative="1" as="geometry" />
        </mxCell>
        <mxCell id="jQ7kkfIX27O_XA6jf1Ui-58" style="edgeStyle=orthogonalEdgeStyle;rounded=0;orthogonalLoop=1;jettySize=auto;html=1;entryX=0;entryY=0.5;entryDx=0;entryDy=0;fontSize=20;fontColor=#000000;" edge="1" parent="1" source="jQ7kkfIX27O_XA6jf1Ui-59" target="jQ7kkfIX27O_XA6jf1Ui-64">
          <mxGeometry relative="1" as="geometry" />
        </mxCell>
        <mxCell id="jQ7kkfIX27O_XA6jf1Ui-59" value="&lt;font style=&quot;font-size: 20px&quot;&gt;空间数据库&lt;/font&gt;" style="shape=cylinder3;whiteSpace=wrap;html=1;boundedLbl=1;backgroundOutline=1;size=15;" vertex="1" parent="1">
          <mxGeometry x="2610" y="3840" width="240" height="105" as="geometry" />
        </mxCell>
        <mxCell id="jQ7kkfIX27O_XA6jf1Ui-60" style="edgeStyle=orthogonalEdgeStyle;rounded=0;orthogonalLoop=1;jettySize=auto;html=1;entryX=-0.007;entryY=0.594;entryDx=0;entryDy=0;entryPerimeter=0;fontSize=20;fontColor=#000000;" edge="1" parent="1" source="jQ7kkfIX27O_XA6jf1Ui-61" target="jQ7kkfIX27O_XA6jf1Ui-64">
          <mxGeometry relative="1" as="geometry" />
        </mxCell>
        <mxCell id="jQ7kkfIX27O_XA6jf1Ui-61" value="&lt;font style=&quot;font-size: 20px&quot;&gt;空间文档数据库&lt;/font&gt;" style="shape=cylinder3;whiteSpace=wrap;html=1;boundedLbl=1;backgroundOutline=1;size=15;" vertex="1" parent="1">
          <mxGeometry x="2610" y="4010" width="240" height="105" as="geometry" />
        </mxCell>
        <mxCell id="jQ7kkfIX27O_XA6jf1Ui-62" value="" style="rounded=1;whiteSpace=wrap;html=1;strokeWidth=2;fillWeight=4;hachureGap=8;hachureAngle=45;fillColor=#1ba1e2;sketch=1;dashed=1;fontSize=20;fontColor=#000000;" vertex="1" parent="1">
          <mxGeometry x="2957" y="3800" width="220" height="70" as="geometry" />
        </mxCell>
        <mxCell id="jQ7kkfIX27O_XA6jf1Ui-63" value="联邦查询Presto" style="text;strokeColor=none;fillColor=none;html=1;fontSize=24;fontStyle=1;verticalAlign=middle;align=center;dashed=1;fontColor=#000000;" vertex="1" parent="1">
          <mxGeometry x="3017" y="3750" width="100" height="40" as="geometry" />
        </mxCell>
        <mxCell id="jQ7kkfIX27O_XA6jf1Ui-64" value="&lt;ol&gt;&lt;li&gt;空间WFS服务&lt;/li&gt;&lt;li&gt;空间WMS服务&lt;/li&gt;&lt;li&gt;空间WMTS服务&lt;/li&gt;&lt;/ol&gt;" style="text;strokeColor=none;fillColor=none;html=1;whiteSpace=wrap;verticalAlign=middle;overflow=hidden;dashed=1;fontSize=20;fontColor=#000000;" vertex="1" parent="1">
          <mxGeometry x="2970" y="3980" width="240" height="140" as="geometry" />
        </mxCell>
        <mxCell id="jQ7kkfIX27O_XA6jf1Ui-65" value="" style="rounded=1;whiteSpace=wrap;html=1;strokeWidth=2;fillWeight=4;hachureGap=8;hachureAngle=45;fillColor=#1ba1e2;sketch=1;dashed=1;fontSize=14;fontColor=#000000;" vertex="1" parent="1">
          <mxGeometry x="1742.5" y="4070" width="205" height="60" as="geometry" />
        </mxCell>
        <mxCell id="jQ7kkfIX27O_XA6jf1Ui-66" value="AI计算" style="text;strokeColor=none;fillColor=none;html=1;fontSize=24;fontStyle=1;verticalAlign=middle;align=center;dashed=1;fontColor=#000000;" vertex="1" parent="1">
          <mxGeometry x="1795" y="4020" width="100" height="40" as="geometry" />
        </mxCell>
      </root>
    </mxGraphModel>
  </diagram>
</mxfile>
